<?xml version="1.0" encoding="UTF-8"?>
<svg id="Layer_1" data-name="Layer 1" xmlns="http://www.w3.org/2000/svg" viewBox="0 0 531.83 675.37">
  <defs>
    <style>
      .cls-1 {
        fill: #7ed957;
      }

      .cls-1, .cls-2, .cls-3, .cls-4, .cls-5 {
        stroke-width: 0px;
      }

      .cls-2 {
        fill: none;
      }

      .cls-3 {
        fill: #737373;
      }

      .cls-4 {
        fill: #a6a6a6;
      }

      .cls-5 {
        fill: #8e9191;
      }
    </style>
  </defs>
  <path class="cls-2" d="M284.88,0c0,.63.45,1.14,1,1.14"/>
  <g>
    <circle class="cls-4" cx="444.13" cy="630.16" r="45.21" transform="translate(-249.03 967.61) rotate(-80.78)"/>
    <path class="cls-5" d="M430.42,573.53l-.69-.06c.03-.28.05-.55.07-.83l.63.89Z"/>
    <g>
      <path class="cls-3" d="M519.73,490.47l-65.77,81.16c-2.28,2.98-5.82,4.71-9.56,4.71h-.27c-3.85-.09-7.41-2.01-9.61-5.16l-5.51-7.9-.63-.89-50.97-72.37,19.76-13.8,35.38,50.7c4.84-87.15-.71-168.69-16.08-232.87-15.57-64.98-40.41-107.14-66.45-112.79-27.12-5.87-69.86,25.35-111.55,81.48-46.69,62.87-96.46,162.8-128.95,263.61-.05.15-.11.31-.14.46-.06.15-.11.31-.15.46-5.96-1.16-12.11-1.75-18.4-1.75-3.93,0-7.81.23-11.62.69.06-.16.12-.34.16-.5.05-.17.11-.34.15-.5.54-1.73,1.08-3.45,1.63-5.18,32.84-103.67,85.19-208.69,134.09-274.55,50.75-68.34,100.8-101.2,140.91-92.49,20.18,4.37,38.3,19.28,53.87,44.33,14.06,22.61,25.69,52.88,34.57,89.98,15.9,66.37,21.73,150.14,16.92,239.39l39.09-50.92,19.12,14.67Z"/>
      <path class="cls-3" d="M444.4,584.84h-.46c-6.53-.15-12.66-3.44-16.39-8.8l-6.1-8.74-55.9-79.37,33.73-23.55,25.9,37.12c2.59-77.42-3.22-148.02-16.97-205.47-17.42-72.68-42.41-102.65-59.98-106.47-10.71-2.32-26.16,3.38-43.5,16.05-18.93,13.82-39.48,35.33-59.43,62.19-47.42,63.85-96.35,163.92-127.69,261.15l-.27.83-2.26,7.28-7.48-1.45c-5.47-1.06-11.11-1.6-16.78-1.6-3.58,0-7.14.21-10.59.63l-13.6,1.65,4.56-12.92c.05-.15.11-.35.17-.55l.05-.16c.54-1.74,1.09-3.48,1.64-5.22,32.27-101.89,84.15-208.05,135.37-277.04,25.86-34.81,51.63-60.78,76.61-77.17,26.12-17.15,50.66-23.39,72.93-18.55,22.5,4.87,42.45,21.07,59.28,48.15,14.55,23.4,26.53,54.52,35.62,92.49,14.51,60.57,20.76,134.39,18.29,214.86l27.89-36.33,32.79,25.16-71.2,87.86c-3.87,4.97-9.92,7.94-16.23,7.94ZM444.25,567.84h.14c1.1,0,2.15-.52,2.82-1.39l.14-.18,60.27-74.38-5.45-4.19-50.62,65.94,1.48-27.4c4.81-89.31-.96-171.24-16.7-236.95-8.66-36.2-19.94-65.63-33.53-87.48-14.31-23.02-30.61-36.65-48.45-40.51-17.65-3.83-37.84,1.6-60,16.15-23.3,15.3-47.62,39.89-72.29,73.1-49.24,66.32-99.18,167.96-131.03,266.47,4.13,0,8.26.26,12.33.74,31.95-97.04,80.81-196.19,128.27-260.1,44.37-59.73,89.29-91.4,120.17-84.72,29.75,6.45,56.32,49.87,72.92,119.12,15.6,65.14,21.23,146.51,16.3,235.32l-1.37,24.59-44.61-63.93-5.79,4.04,46.68,66.27,5.54,7.94c.63.91,1.66,1.47,2.76,1.52Z"/>
    </g>
    <g>
      <circle class="cls-4" cx="98.03" cy="577.34" r="97.55"/>
      <path class="cls-4" d="M98.03,675.37c-54.06,0-98.03-43.98-98.03-98.03s43.98-98.03,98.03-98.03,98.03,43.98,98.03,98.03-43.98,98.03-98.03,98.03ZM98.03,480.27c-53.52,0-97.07,43.54-97.07,97.07s43.54,97.07,97.07,97.07,97.07-43.54,97.07-97.07-43.54-97.07-97.07-97.07Z"/>
    </g>
    <path class="cls-1" d="M423.29,390c-2.6-3.73-27.1-37.01-86.9-56.28-48.34-15.58-100.35-15.94-132.5-.91l-15.67-33.52c40.77-19.06,101.89-19.36,159.51-.79,69.87,22.52,100.49,62.56,105.92,70.36l-30.37,21.14Z"/>
  </g>
</svg>