<?xml version="1.0" encoding="UTF-8"?>
<svg id="Layer_2" data-name="Layer 2" xmlns="http://www.w3.org/2000/svg" viewBox="0 0 960.02 319">
  <defs>
    <style>
      .cls-1 {
        font-family: Lato-Bold, Lato;
        font-size: 132.57px;
        font-weight: 700;
      }

      .cls-2 {
        fill: #737373;
      }

      .cls-3 {
        fill: #8e9191;
      }

      .cls-4 {
        fill: #a6a6a6;
      }

      .cls-5 {
        fill: #60ad2f;
      }
    </style>
  </defs>
  <g id="Layer_1-2" data-name="Layer 1">
    <g>
      <g>
        <circle class="cls-4" cx="250.31" cy="274.52" r="25.48" transform="translate(-60.76 477.61) rotate(-80.78)"/>
        <path class="cls-3" d="m242.58,242.59l-.39-.03c.02-.16.03-.31.04-.47l.36.5h0Z"/>
        <g>
          <path class="cls-2" d="m292.91,195.78l-37.07,45.74c-1.28,1.68-3.28,2.65-5.39,2.65h-.15c-2.17-.05-4.18-1.13-5.42-2.91l-3.11-4.45-.36-.5-28.73-40.79,11.14-7.78,19.94,28.57c2.73-49.12-.4-95.07-9.06-131.24-8.77-36.62-22.77-60.38-37.45-63.57-15.28-3.31-39.37,14.29-62.87,45.92-26.31,35.43-54.36,91.75-72.67,148.57-.03.08-.06.17-.08.26-.03.08-.06.17-.08.26-3.36-.65-6.82-.99-10.37-.99-2.21,0-4.4.13-6.55.39.03-.09.07-.19.09-.28.03-.1.06-.19.08-.28.3-.97.61-1.94.92-2.92,18.51-58.43,48.01-117.61,75.57-154.73C149.91,19.19,178.11.67,200.72,5.58c11.37,2.46,21.59,10.87,30.36,24.98,7.92,12.74,14.48,29.8,19.48,50.71,8.96,37.4,12.25,84.62,9.54,134.92l22.03-28.7,10.78,8.27v.02Z"/>
          <path class="cls-2" d="m250.46,248.96h-.26c-3.68-.08-7.13-1.94-9.24-4.96l-3.44-4.93-31.5-44.73,19.01-13.27,14.6,20.92c1.46-43.63-1.81-83.42-9.56-115.8-9.82-40.96-23.9-57.85-33.8-60-6.04-1.31-14.74,1.9-24.52,9.05-10.67,7.79-22.25,19.91-33.49,35.05-26.73,35.98-54.3,92.38-71.96,147.18l-.15.47-1.27,4.1-4.22-.82c-3.08-.6-6.26-.9-9.46-.9-2.02,0-4.02.12-5.97.36l-7.66.93,2.57-7.28c.03-.08.06-.2.1-.31l.03-.09c.3-.98.61-1.96.92-2.94,18.19-57.42,47.43-117.25,76.29-156.13,14.57-19.62,29.1-34.25,43.18-43.49C175.36,1.68,189.19-1.83,201.74.89c12.68,2.74,23.92,11.87,33.41,27.14,8.2,13.19,14.95,30.73,20.07,52.13,8.18,34.14,11.7,75.74,10.31,121.09l15.72-20.47,18.48,14.18-40.13,49.52c-2.18,2.8-5.59,4.47-9.15,4.47v.02Zm-.08-9.58h.08c.62,0,1.21-.29,1.59-.78l.08-.1,33.97-41.92-3.07-2.36-28.53,37.16.83-15.44c2.71-50.33-.54-96.51-9.41-133.54-4.88-20.4-11.24-36.99-18.9-49.3-8.06-12.97-17.25-20.66-27.31-22.83-9.95-2.16-21.33.9-33.81,9.1-13.13,8.62-26.84,22.48-40.74,41.2-27.75,37.38-55.9,94.66-73.85,150.18,2.33,0,4.66.15,6.95.42,18.01-54.69,45.54-110.57,72.29-146.59,25.01-33.66,50.32-51.51,67.73-47.75,16.77,3.64,31.74,28.11,41.1,67.13,8.79,36.71,11.96,82.57,9.19,132.62l-.77,13.86-25.14-36.03-3.26,2.28,26.31,37.35,3.12,4.47c.36.51.94.83,1.56.86v.02Z"/>
        </g>
        <g>
          <circle class="cls-4" cx="55.25" cy="244.73" r="54.98"/>
          <path class="cls-4" d="m55.25,299.98c-30.47,0-55.25-24.79-55.25-55.25s24.79-55.25,55.25-55.25,55.25,24.79,55.25,55.25-24.79,55.25-55.25,55.25Zm0-109.95c-30.16,0-54.71,24.54-54.71,54.71s24.54,54.71,54.71,54.71,54.71-24.54,54.71-54.71-24.54-54.71-54.71-54.71h0Z"/>
        </g>
        <path class="cls-5" d="m238.56,139.15c-1.47-2.1-15.27-20.86-48.98-31.72-27.24-8.78-56.56-8.98-74.67-.51l-8.83-18.89c22.98-10.74,57.42-10.91,89.9-.45,39.38,12.69,56.63,35.26,59.69,39.65l-17.12,11.91h0Z"/>
      </g>
      <text class="cls-1" transform="translate(349.46 190.87)"><tspan class="cls-2" x="0" y="0">A</tspan><tspan class="cls-4" x="94.13" y="0">PSTURN</tspan></text>
      <g>
        <circle class="cls-4" cx="735.95" cy="274.21" r="25.48" transform="translate(347.36 956.72) rotate(-80.78)"/>
        <circle class="cls-4" cx="651.95" cy="274.21" r="25.48" transform="translate(276.82 873.8) rotate(-80.78)"/>
        <path class="cls-4" d="m372.46,300.55c-4.74,0-8.4-1.34-10.96-4.04-2.57-2.69-3.85-6.41-3.85-11.15v-30.64h-5.56c-.71,0-1.33-.23-1.85-.7-.52-.46-.78-1.16-.78-2.09v-5.24l8.82-1.44,2.78-14.97c.14-.71.47-1.26.99-1.66.52-.39,1.17-.59,1.95-.59h6.84v17.27h14.44v9.41h-14.44v29.73c0,1.71.43,3.05,1.28,4.01.86.96,2,1.44,3.42,1.44.82,0,1.51-.1,2.06-.29.55-.2,1.03-.4,1.44-.62.41-.21.78-.42,1.1-.62.32-.2.64-.29.96-.29.39,0,.71.1.96.29.25.2.52.49.8.88l3.96,6.42c-1.93,1.6-4.14,2.82-6.63,3.64-2.5.82-5.08,1.23-7.75,1.23Z"/>
        <path class="cls-4" d="m418.5,243.97c3.46,0,6.64.55,9.55,1.66,2.91,1.11,5.41,2.72,7.51,4.84,2.1,2.12,3.74,4.72,4.92,7.81,1.18,3.08,1.76,6.6,1.76,10.56,0,1-.04,1.83-.13,2.49-.09.66-.25,1.18-.48,1.55-.23.37-.54.64-.94.8-.39.16-.89.24-1.5.24h-33.9c.39,5.63,1.91,9.77,4.55,12.41,2.64,2.64,6.13,3.96,10.48,3.96,2.14,0,3.98-.25,5.53-.75s2.91-1.05,4.06-1.66c1.16-.61,2.17-1.16,3.05-1.66.87-.5,1.72-.75,2.54-.75.53,0,1,.11,1.39.32.39.21.73.52,1.02.91l3.85,4.81c-1.46,1.71-3.1,3.15-4.92,4.3-1.82,1.16-3.72,2.09-5.7,2.78-1.98.7-3.99,1.19-6.04,1.47-2.05.29-4.04.43-5.96.43-3.82,0-7.36-.63-10.64-1.9-3.28-1.26-6.13-3.14-8.56-5.61-2.42-2.48-4.33-5.54-5.72-9.2-1.39-3.65-2.09-7.89-2.09-12.7,0-3.74.61-7.26,1.82-10.56,1.21-3.3,2.95-6.17,5.21-8.61,2.26-2.44,5.03-4.38,8.29-5.8,3.26-1.42,6.94-2.14,11.04-2.14Zm.27,9.46c-3.85,0-6.86,1.09-9.04,3.26-2.17,2.17-3.57,5.26-4.17,9.25h24.81c0-1.71-.23-3.32-.7-4.84-.46-1.52-1.18-2.84-2.14-3.98-.96-1.14-2.17-2.04-3.64-2.7-1.46-.66-3.17-.99-5.13-.99Z"/>
        <path class="cls-4" d="m491.55,256.43c-.39.5-.78.89-1.15,1.18-.37.29-.92.43-1.63.43s-1.34-.21-1.98-.62c-.64-.41-1.41-.87-2.3-1.39-.89-.52-1.95-.98-3.18-1.39s-2.75-.62-4.57-.62c-2.32,0-4.35.42-6.1,1.26-1.75.84-3.2,2.04-4.36,3.61-1.16,1.57-2.02,3.47-2.59,5.7-.57,2.23-.86,4.75-.86,7.57s.31,5.53.94,7.81c.62,2.28,1.52,4.2,2.7,5.75,1.18,1.55,2.6,2.73,4.28,3.53,1.68.8,3.56,1.2,5.67,1.2s3.81-.26,5.11-.78c1.3-.52,2.4-1.09,3.29-1.71.89-.62,1.67-1.19,2.33-1.71s1.4-.78,2.22-.78c1.07,0,1.87.41,2.41,1.23l3.8,4.81c-1.46,1.71-3.05,3.15-4.76,4.3-1.71,1.16-3.49,2.09-5.32,2.78-1.84.7-3.73,1.19-5.7,1.47-1.96.29-3.9.43-5.83.43-3.39,0-6.58-.63-9.57-1.9-3-1.26-5.61-3.11-7.83-5.53-2.23-2.42-3.99-5.39-5.29-8.9-1.3-3.51-1.95-7.51-1.95-12,0-4.03.58-7.76,1.74-11.2,1.16-3.44,2.86-6.42,5.11-8.93,2.25-2.51,5.03-4.48,8.34-5.91,3.32-1.42,7.13-2.14,11.44-2.14s7.69.66,10.78,1.98c3.08,1.32,5.86,3.21,8.32,5.67l-3.48,4.81Z"/>
        <path class="cls-4" d="m504.01,299.7v-79.47h13.21v30.54c2.14-2.03,4.49-3.67,7.06-4.92s5.58-1.87,9.04-1.87c2.99,0,5.65.51,7.97,1.52,2.32,1.02,4.25,2.44,5.8,4.28,1.55,1.84,2.73,4.03,3.53,6.58.8,2.55,1.2,5.36,1.2,8.42v34.92h-13.21v-34.92c0-3.35-.78-5.94-2.33-7.78-1.55-1.84-3.88-2.75-6.98-2.75-2.28,0-4.42.52-6.42,1.55-2,1.03-3.89,2.44-5.67,4.22v39.68h-13.21Z"/>
        <path class="cls-4" d="m564.81,299.7v-54.87h8.08c1.71,0,2.83.8,3.37,2.41l.91,4.33c1.1-1.14,2.27-2.17,3.5-3.1,1.23-.93,2.53-1.73,3.9-2.41,1.37-.68,2.84-1.19,4.41-1.55,1.57-.36,3.28-.54,5.13-.54,3,0,5.65.51,7.97,1.52,2.32,1.02,4.25,2.44,5.8,4.28,1.55,1.84,2.73,4.03,3.53,6.58.8,2.55,1.2,5.36,1.2,8.42v34.92h-13.21v-34.92c0-3.35-.78-5.94-2.33-7.78-1.55-1.84-3.88-2.75-6.98-2.75-2.28,0-4.42.52-6.42,1.55-2,1.03-3.89,2.44-5.67,4.22v39.68h-13.21Z"/>
        <path class="cls-4" d="m700.48,220.23v79.47h-13.21v-79.47h13.21Z"/>
        <path class="cls-4" d="m795.19,243.87c2.35,0,4.56.24,6.63.72,2.07.48,3.96,1.19,5.67,2.11h15.78v4.92c0,.82-.21,1.46-.64,1.92-.43.46-1.16.78-2.19.96l-4.92.91c.36.93.63,1.91.83,2.94.2,1.04.29,2.12.29,3.26,0,2.71-.54,5.16-1.63,7.35-1.09,2.19-2.58,4.06-4.49,5.59s-4.17,2.72-6.79,3.56c-2.62.84-5.46,1.26-8.53,1.26-2.07,0-4.08-.2-6.04-.59-1.71,1.04-2.57,2.21-2.57,3.5,0,1.11.51,1.93,1.52,2.45,1.02.52,2.35.89,4.01,1.1,1.66.21,3.54.32,5.64.32s4.26.09,6.47.27c2.21.18,4.37.49,6.47.94,2.1.45,3.98,1.15,5.64,2.12,1.66.97,2.99,2.28,4.01,3.94,1.02,1.66,1.52,3.8,1.52,6.41,0,2.43-.6,4.79-1.79,7.08s-2.92,4.33-5.19,6.12c-2.26,1.79-5.04,3.23-8.32,4.32-3.28,1.09-7.02,1.64-11.23,1.64s-7.79-.4-10.86-1.2c-3.07-.8-5.61-1.87-7.62-3.21-2.01-1.34-3.52-2.88-4.52-4.63-1-1.75-1.5-3.57-1.5-5.46,0-2.57.78-4.72,2.35-6.47,1.57-1.75,3.74-3.14,6.52-4.17-1.36-.75-2.44-1.75-3.26-2.99s-1.23-2.87-1.23-4.87c0-.82.14-1.67.43-2.54.29-.87.72-1.74,1.31-2.59.59-.86,1.33-1.67,2.22-2.43.89-.77,1.94-1.45,3.16-2.06-2.78-1.5-4.96-3.49-6.55-5.99-1.59-2.49-2.38-5.42-2.38-8.77,0-2.71.54-5.16,1.63-7.35,1.09-2.19,2.6-4.06,4.55-5.62,1.94-1.55,4.24-2.74,6.9-3.56,2.66-.82,5.55-1.23,8.69-1.23Zm14.49,58.13c0-1.09-.32-1.98-.96-2.67-.64-.69-1.52-1.23-2.62-1.61-1.11-.38-2.4-.66-3.88-.85-1.48-.18-3.05-.27-4.71-.27h-5.13c-1.76,0-3.47-.2-5.11-.59-1.5.82-2.7,1.79-3.61,2.91s-1.36,2.42-1.36,3.88c0,.96.24,1.86.72,2.7s1.25,1.56,2.3,2.17c1.05.61,2.42,1.08,4.09,1.42s3.72.51,6.15.51,4.58-.19,6.36-.57c1.78-.38,3.25-.91,4.41-1.58,1.16-.67,2-1.47,2.54-2.4.53-.93.8-1.94.8-3.03Zm-14.49-31.07c1.64,0,3.07-.22,4.28-.67,1.21-.45,2.22-1.06,3.02-1.85.8-.78,1.41-1.73,1.82-2.83.41-1.1.62-2.32.62-3.64,0-2.71-.81-4.86-2.43-6.44-1.62-1.59-4.06-2.38-7.3-2.38s-5.68.79-7.3,2.38c-1.62,1.59-2.43,3.73-2.43,6.44,0,1.28.2,2.48.62,3.58.41,1.11,1.02,2.06,1.82,2.86.8.8,1.82,1.43,3.05,1.87,1.23.45,2.65.67,4.25.67Z"/>
        <path class="cls-4" d="m847.59,228.84c0,1.14-.23,2.21-.69,3.21-.46,1-1.08,1.87-1.85,2.62-.77.75-1.67,1.35-2.7,1.79-1.03.45-2.14.67-3.32.67s-2.22-.22-3.24-.67c-1.02-.45-1.9-1.04-2.65-1.79-.75-.75-1.35-1.62-1.79-2.62-.45-1-.67-2.07-.67-3.21s.22-2.28.67-3.32c.45-1.03,1.04-1.93,1.79-2.67s1.63-1.35,2.65-1.79c1.02-.45,2.09-.67,3.24-.67s2.28.22,3.32.67c1.03.45,1.93,1.04,2.7,1.79.77.75,1.38,1.64,1.85,2.67.46,1.03.69,2.14.69,3.32Zm-1.98,15.99v54.87h-13.21v-54.87h13.21Z"/>
        <path class="cls-4" d="m883.21,243.97c3.46,0,6.64.55,9.54,1.66,2.91,1.11,5.41,2.72,7.51,4.84,2.1,2.12,3.74,4.72,4.92,7.81,1.18,3.08,1.76,6.6,1.76,10.56,0,1-.04,1.83-.13,2.49-.09.66-.25,1.18-.48,1.55-.23.37-.54.64-.94.8-.39.16-.89.24-1.5.24h-33.9c.39,5.63,1.91,9.77,4.55,12.41,2.64,2.64,6.13,3.96,10.48,3.96,2.14,0,3.98-.25,5.54-.75s2.91-1.05,4.06-1.66c1.16-.61,2.17-1.16,3.05-1.66.87-.5,1.72-.75,2.54-.75.54,0,1,.11,1.39.32.39.21.73.52,1.02.91l3.85,4.81c-1.46,1.71-3.1,3.15-4.92,4.3-1.82,1.16-3.72,2.09-5.7,2.78-1.98.7-3.99,1.19-6.04,1.47-2.05.29-4.04.43-5.96.43-3.82,0-7.36-.63-10.64-1.9-3.28-1.26-6.13-3.14-8.56-5.61-2.42-2.48-4.33-5.54-5.72-9.2-1.39-3.65-2.09-7.89-2.09-12.7,0-3.74.61-7.26,1.82-10.56,1.21-3.3,2.95-6.17,5.21-8.61,2.26-2.44,5.03-4.38,8.29-5.8,3.26-1.42,6.94-2.14,11.04-2.14Zm.27,9.46c-3.85,0-6.86,1.09-9.04,3.26-2.17,2.17-3.57,5.26-4.17,9.25h24.81c0-1.71-.23-3.32-.69-4.84-.46-1.52-1.18-2.84-2.14-3.98-.96-1.14-2.17-2.04-3.64-2.7-1.46-.66-3.17-.99-5.13-.99Z"/>
        <path class="cls-4" d="m950.27,255.52c-.36.57-.73.97-1.12,1.2-.39.23-.89.35-1.5.35-.64,0-1.33-.18-2.06-.53-.73-.36-1.58-.76-2.54-1.2-.96-.45-2.06-.85-3.29-1.2-1.23-.36-2.68-.53-4.36-.53-2.6,0-4.65.55-6.15,1.66-1.5,1.11-2.25,2.55-2.25,4.33,0,1.18.38,2.17,1.15,2.97.77.8,1.78,1.51,3.05,2.11,1.27.61,2.7,1.15,4.3,1.63,1.6.48,3.24,1.01,4.92,1.58s3.32,1.22,4.92,1.95c1.6.73,3.04,1.66,4.31,2.78,1.26,1.12,2.28,2.47,3.05,4.04.77,1.57,1.15,3.46,1.15,5.67,0,2.64-.48,5.07-1.44,7.3-.96,2.23-2.37,4.15-4.22,5.78-1.85,1.62-4.14,2.89-6.87,3.8s-5.86,1.36-9.38,1.36c-1.89,0-3.74-.17-5.54-.51-1.8-.34-3.53-.81-5.19-1.42-1.66-.61-3.19-1.32-4.6-2.14-1.41-.82-2.65-1.71-3.72-2.67l3.05-5.03c.39-.61.86-1.07,1.39-1.39.54-.32,1.21-.48,2.03-.48s1.59.23,2.33.7c.73.46,1.58.96,2.54,1.5.96.54,2.09,1.04,3.4,1.5,1.3.46,2.95.7,4.95.7,1.57,0,2.91-.19,4.04-.56,1.12-.38,2.05-.86,2.78-1.47.73-.61,1.26-1.31,1.6-2.11.34-.8.51-1.63.51-2.49,0-1.28-.38-2.33-1.15-3.15s-1.78-1.53-3.05-2.14c-1.27-.61-2.71-1.15-4.33-1.63s-3.28-1.01-4.97-1.58c-1.69-.57-3.35-1.24-4.97-2.01-1.62-.77-3.07-1.74-4.33-2.91-1.27-1.18-2.28-2.62-3.05-4.33s-1.15-3.78-1.15-6.2c0-2.25.45-4.38,1.34-6.42.89-2.03,2.2-3.81,3.93-5.32,1.73-1.51,3.88-2.73,6.47-3.64,2.58-.91,5.57-1.36,8.96-1.36,3.78,0,7.22.62,10.32,1.87s5.69,2.89,7.75,4.92l-3,4.76Z"/>
      </g>
    </g>
  </g>
</svg>